<?xml version="1.0" encoding="UTF-8" standalone="no"?>
<!DOCTYPE svg PUBLIC "-//W3C//DTD SVG 1.1//EN" "http://www.w3.org/Graphics/SVG/1.1/DTD/svg11.dtd">
<svg width="100%" height="100%" viewBox="0 0 473 473" version="1.1" xmlns="http://www.w3.org/2000/svg" xmlns:xlink="http://www.w3.org/1999/xlink" xml:space="preserve" xmlns:serif="http://www.serif.com/" style="fill-rule:evenodd;clip-rule:evenodd;stroke-miterlimit:10;">
    <g id="Capa-1" serif:id="Capa 1" transform="matrix(4.16667,0,0,4.16667,0,0)">
        <g transform="matrix(0,-1,-1,0,56.693,-0.0085)">
            <path d="M-56.702,-56.702C-88.018,-56.702 -113.404,-31.316 -113.404,0.001C-113.404,31.316 -88.018,56.702 -56.702,56.702C-25.387,56.702 0.001,31.316 0.001,0.001C0.001,-31.316 -25.387,-56.702 -56.702,-56.702" style="fill:rgb(241,240,240);fill-rule:nonzero;"/>
        </g>
        <g>
            <text x="25.617px" y="91.362px" style="font-family:'Lato-Black', 'Lato', sans-serif;font-weight:900;font-size:16.569px;fill:rgb(29,29,27);">L</text>
            <text x="33.736px" y="91.362px" style="font-family:'Lato-Black', 'Lato', sans-serif;font-weight:900;font-size:16.569px;fill:rgb(29,29,27);">O<tspan x="47.083px " y="91.362px ">O</tspan></text>
            <text x="60.429px" y="91.362px" style="font-family:'Lato-Black', 'Lato', sans-serif;font-weight:900;font-size:16.569px;fill:rgb(29,29,27);">M<tspan x="76.087px " y="91.362px ">Y</tspan></text>
        </g>
        <g transform="matrix(0,-1,-1,0,58.2173,16.7487)">
            <circle cx="-22.02" cy="-0" r="22.02" style="fill:none;stroke:rgb(29,29,27);stroke-width:1.03px;"/>
        </g>
        <g transform="matrix(0,-1,-1,0,62.0303,22.9084)">
            <ellipse cx="-22.02" cy="0" rx="22.02" ry="22.02" style="fill:none;stroke:rgb(29,29,27);stroke-width:1.03px;"/>
        </g>
        <g transform="matrix(0,-1,-1,0,53.9361,20.7556)">
            <circle cx="-24.6" cy="0" r="24.6" style="fill:none;stroke:rgb(29,29,27);stroke-width:1.03px;"/>
        </g>
    </g>
</svg>
